<svg version="1.2" xmlns="http://www.w3.org/2000/svg" viewBox="0 0 400 400" width="100" height="75">
    <style>
        .s0 { fill: #00C950 }
    </style>
    <path id="Layer 1" class="s0" d="m305 74.49c11.05 0 20 8.96 20 20v210.51c0 11.05-8.95 20-20 20h-210c-11.05 0-20-8.95-20-20v-210.51c0-11.04 8.95-20 20-20zm-37.5-59.49c11.05 0 20 8.95 20 20v10c0 11.05-8.95 20-20 20h-135c-11.05 0-20-8.95-20-20v-10c0-11.05 8.95-20 20-20zm0 319c11.05 0 20 8.95 20 20v10c0 11.05-8.95 20-20 20h-135c-11.05 0-20-8.95-20-20v-10c0-11.05 8.95-20 20-20z"/>
</svg>